# xmcd
#
# Track frame offsets:
#	182
#	15160
#	28745
#	41607
#	58400
#	73440
#	85017
#	98222
#	113602
#	130532
#
# Disc length: 1950 seconds
#
# Revision: 0
# Processed by: cddbd v1.4PL0 Copyright (c) Steve Scherf et al.
# Submitted via: dBpowerAMP V4.0
#
DISCID=7d079c0a
DTITLE=Various Artist - Country Currents
DYEAR=1996
DGENRE=Country
TTITLE0=Born Country/Alabama
TTITLE1=Money in the Bank/John Anderson
TTITLE2=True Love/ Don Williams
TTITLE3=I Want to be Loved Like That/ Shenandoah
TTITLE4=Brotherly Love/Earl Thomas Conley
TTITLE5=Alright Already/Larry Stewart
TTITLE6=Except for Monday/Lorrie Morgan
TTITLE7=My Blue Angel/Aaron Tippin
TTITLE8=When She Cries/Restless Heart
TTITLE9=Reno/Doug Supernaw
EXTD=
EXTT0=
EXTT1=
EXTT2=
EXTT3=
EXTT4=
EXTT5=
EXTT6=
EXTT7=
EXTT8=
EXTT9=
PLAYORDER=
